<?xml version="1.0" standalone="no"?>
<!DOCTYPE svg PUBLIC "-//W3C//DTD SVG 20010904//EN"
 "http://www.w3.org/TR/2001/REC-SVG-20010904/DTD/svg10.dtd">
<svg version="1.0" xmlns="http://www.w3.org/2000/svg"
 width="1360.000000pt" height="1360.000000pt" viewBox="0 0 1360.000000 1360.000000"
 preserveAspectRatio="xMidYMid meet">
<metadata>
Created by potrace 1.14, written by Peter Selinger 2001-2017
</metadata>
<g transform="translate(0.000000,1360.000000) scale(0.100000,-0.100000)"
fill="#000000" stroke="none">
<path d="M4900 9761 c0 -3 -24 -6 -53 -6 -60 -1 -244 -19 -307 -31 -14 -3 -38
-6 -55 -8 -79 -10 -133 -18 -170 -26 -22 -5 -56 -11 -75 -15 -30 -5 -121 -22
-155 -30 -27 -6 -76 -18 -128 -31 -32 -9 -68 -17 -79 -19 -11 -3 -44 -11 -72
-19 -28 -8 -54 -15 -58 -16 -4 0 -67 -21 -140 -46 -147 -51 -331 -130 -453
-195 -78 -41 -289 -176 -316 -201 -8 -7 -34 -29 -59 -49 -113 -91 -238 -229
-322 -354 -100 -150 -135 -347 -88 -498 21 -68 60 -147 86 -178 8 -8 14 -19
14 -23 0 -18 154 -157 230 -208 124 -82 388 -202 491 -223 9 -2 47 -12 85 -24
63 -18 407 -105 458 -115 11 -3 64 -14 116 -26 52 -11 106 -23 120 -26 14 -2
75 -15 135 -29 61 -13 121 -26 135 -29 49 -9 247 -56 365 -86 66 -17 131 -33
144 -36 36 -8 177 -49 262 -78 103 -34 180 -69 269 -122 107 -64 111 -67 136
-89 13 -11 37 -31 55 -45 31 -24 60 -54 114 -115 73 -83 147 -246 161 -355 7
-46 6 -185 -1 -220 -28 -155 -63 -256 -137 -405 -32 -65 -126 -208 -140 -213
-4 -2 -8 -8 -8 -13 0 -13 -41 -59 -155 -173 -144 -145 -239 -222 -431 -348
-116 -76 -294 -180 -294 -171 0 3 -8 -1 -17 -10 -10 -8 -30 -19 -45 -22 -16
-4 -28 -11 -28 -15 0 -4 -8 -10 -17 -13 -10 -3 -76 -31 -148 -62 -128 -57
-392 -153 -490 -180 -98 -26 -290 -77 -300 -79 -14 -3 -129 -29 -135 -31 -6
-2 -61 -12 -102 -20 -26 -5 -47 -8 -108 -20 -14 -3 -47 -7 -75 -10 -27 -3 -72
-8 -100 -12 -27 -3 -66 -7 -85 -8 -19 -2 -60 -5 -90 -8 -236 -24 -691 -25
-882 -3 -110 13 -144 17 -163 20 -11 2 -40 7 -65 10 -66 11 -169 32 -220 47
-52 15 -45 13 -89 23 -59 14 -238 84 -320 125 -134 68 -261 159 -361 260 -110
111 -113 116 -162 196 -61 102 -111 220 -124 295 -3 14 -10 42 -15 64 -6 21
-8 40 -6 43 3 2 1 19 -5 36 -15 50 -17 322 -3 417 20 126 24 148 46 228 24 86
56 173 95 257 15 33 28 62 28 65 6 26 121 206 185 290 35 45 188 201 314 318
37 35 67 72 67 82 0 16 -7 18 -47 14 -125 -10 -405 -192 -582 -378 -31 -33
-64 -68 -74 -78 -32 -34 -157 -207 -157 -217 0 -6 -3 -11 -8 -11 -4 0 -12 -9
-17 -19 -6 -11 -42 -82 -81 -158 -98 -193 -156 -357 -181 -512 -9 -56 -10
-273 -1 -321 15 -85 21 -109 45 -180 93 -284 279 -508 570 -689 110 -68 293
-155 433 -206 41 -15 82 -29 90 -32 8 -3 20 -7 25 -9 6 -1 60 -16 120 -33 108
-31 140 -39 180 -45 11 -2 45 -8 75 -14 30 -6 73 -14 95 -17 22 -3 54 -8 70
-11 17 -3 48 -7 70 -9 22 -2 65 -6 95 -10 257 -29 727 -20 1045 20 22 3 58 7
81 10 22 2 54 6 70 9 16 3 52 8 79 12 28 3 57 8 67 10 9 1 38 6 65 10 26 3 57
8 68 10 60 12 72 14 95 19 14 3 36 8 50 10 14 2 45 8 70 14 25 5 59 12 75 15
61 11 404 106 520 145 206 68 411 153 595 246 127 64 155 79 158 88 2 4 8 7
13 7 6 0 33 15 62 33 29 18 64 39 80 46 15 8 27 18 27 23 0 4 4 8 10 8 10 0
171 107 249 167 45 33 177 138 187 147 6 6 35 31 63 56 291 248 539 579 656
875 5 11 9 22 9 25 1 3 5 11 9 18 5 6 6 12 3 12 -3 0 -1 11 4 24 23 62 33 249
18 342 -28 170 -212 417 -409 549 -72 48 -218 126 -309 164 -30 12 -64 27 -75
31 -99 44 -608 192 -770 225 -11 3 -65 16 -120 29 -55 14 -111 27 -125 29 -14
3 -45 10 -70 17 -25 7 -53 14 -63 16 -10 2 -26 5 -35 8 -9 3 -28 7 -42 10 -40
7 -294 67 -300 71 -4 2 -17 6 -31 8 -19 4 -143 36 -234 61 -5 2 -23 6 -40 11
-126 32 -327 110 -425 163 -395 216 -491 504 -266 797 51 66 59 74 121 135 81
79 183 157 280 214 44 26 87 51 95 57 8 5 31 16 50 24 19 9 43 20 52 25 86 48
509 201 691 249 132 36 275 66 357 77 25 3 52 7 60 9 82 23 406 35 545 22 66
-7 82 -9 145 -22 14 -2 39 -7 55 -11 44 -8 183 -54 214 -70 14 -8 30 -14 34
-14 15 0 151 -83 196 -119 46 -37 111 -100 111 -107 0 -3 11 -21 25 -42 33
-51 53 -134 51 -214 -4 -110 -57 -200 -162 -274 -29 -21 -153 -70 -197 -78
-85 -15 -163 -47 -183 -74 -6 -8 -9 -25 -6 -38 12 -64 148 -32 393 91 192 97
328 226 384 365 31 77 26 252 -8 286 -4 4 -7 14 -7 21 0 21 -72 122 -121 171
-120 118 -323 208 -559 247 -47 8 -103 17 -125 21 -53 8 -585 14 -585 5z"/>
<path d="M8224 8899 c-85 -15 -238 -112 -337 -214 -85 -86 -192 -253 -291
-452 -47 -95 -86 -174 -86 -177 0 -2 -16 -39 -35 -80 -19 -42 -35 -78 -35 -81
0 -2 -11 -28 -24 -57 -13 -29 -47 -116 -76 -193 -30 -77 -56 -143 -59 -147 -7
-8 -46 -15 -126 -22 -33 -3 -76 -8 -95 -11 -19 -2 -57 -7 -85 -10 -132 -14
-151 -17 -167 -32 -10 -9 -18 -30 -18 -49 0 -44 33 -67 87 -60 21 3 63 8 93
11 30 3 71 8 90 10 19 3 61 7 92 9 32 3 63 8 69 12 9 5 10 2 5 -12 -4 -10 -16
-49 -26 -85 -10 -37 -24 -77 -31 -90 -7 -13 -11 -24 -9 -24 7 0 -23 -99 -33
-112 -5 -7 -7 -13 -4 -13 3 0 -3 -30 -14 -67 -11 -38 -21 -77 -24 -88 -2 -11
-12 -47 -21 -80 -15 -56 -18 -70 -29 -120 -3 -11 -7 -29 -10 -40 -11 -47 -35
-158 -40 -188 -3 -18 -8 -39 -10 -47 -2 -8 -6 -31 -9 -50 -3 -19 -8 -45 -10
-58 -3 -13 -8 -50 -11 -83 -4 -33 -9 -70 -11 -82 -3 -12 -7 -96 -9 -187 -5
-261 30 -378 147 -494 60 -59 171 -126 207 -126 10 0 21 -3 25 -7 3 -4 14 -8
24 -10 25 -4 155 -16 167 -15 116 9 260 56 367 119 140 83 287 244 404 440 27
46 53 83 57 83 5 0 6 -4 3 -8 -6 -10 19 -137 33 -167 74 -167 145 -238 298
-295 64 -24 165 -32 228 -17 22 5 49 10 60 13 39 8 163 75 220 119 74 57 147
127 205 195 25 29 51 59 58 66 6 7 12 17 12 22 0 6 4 12 9 14 13 4 108 143
192 281 40 64 74 116 76 113 2 -2 0 -30 -5 -62 -9 -56 -8 -238 2 -279 11 -48
40 -121 61 -154 29 -47 91 -103 133 -122 17 -7 32 -17 32 -21 0 -5 9 -8 19 -8
11 0 22 -4 25 -9 6 -8 87 -22 156 -26 63 -4 250 52 250 75 0 4 12 12 26 19 34
15 63 41 192 171 167 168 266 320 412 630 68 146 182 461 250 695 17 61 37
126 43 145 13 41 11 35 21 83 5 20 11 37 15 38 3 0 17 3 31 6 39 8 330 7 380
-1 151 -24 218 -81 206 -175 -4 -27 -52 -136 -130 -295 -130 -263 -157 -323
-199 -446 -53 -152 -70 -275 -52 -359 3 -11 7 -31 10 -43 20 -94 139 -236 235
-281 66 -31 106 -40 185 -40 248 -2 452 154 710 542 52 78 165 287 165 305 0
3 13 33 29 68 42 90 120 292 127 325 6 33 -23 67 -52 61 -24 -4 -65 -68 -99
-153 -57 -145 -172 -384 -245 -511 -28 -48 -50 -90 -50 -95 0 -4 -3 -9 -7 -11
-5 -1 -30 -37 -58 -78 -112 -168 -244 -274 -347 -279 -104 -5 -152 60 -151
209 0 63 13 162 24 181 4 9 6 19 4 21 -3 3 1 24 9 47 9 23 15 42 14 44 0 1 7
29 17 62 10 33 20 65 21 70 22 75 114 310 147 380 15 30 47 103 62 140 5 11 7
23 7 28 -1 4 3 7 8 7 6 0 10 5 10 11 0 6 25 73 55 148 68 172 86 239 79 304
-6 61 -25 103 -45 98 -8 -2 -23 -5 -34 -6 -19 -3 -55 -10 -101 -19 -12 -2 -37
-7 -55 -10 -19 -3 -45 -8 -58 -10 -34 -7 -286 -43 -356 -51 -126 -15 -150 -17
-314 -31 l-64 -5 44 36 c242 201 325 381 258 561 -30 78 -107 157 -175 177
-105 31 -212 0 -252 -72 -25 -46 -31 -73 -38 -199 -3 -57 -7 -113 -10 -125 -2
-12 -7 -53 -10 -92 -3 -38 -8 -73 -10 -76 -2 -4 -6 -31 -9 -60 -4 -30 -8 -60
-11 -68 -3 -8 -7 -30 -10 -50 -5 -30 -21 -108 -39 -191 -2 -8 -11 -44 -20 -80
-9 -36 -19 -76 -21 -88 -6 -29 -87 -294 -116 -377 -37 -107 -124 -303 -194
-440 -170 -333 -335 -564 -469 -655 -77 -52 -155 -65 -203 -34 -44 29 -55 76
-56 239 0 83 4 170 8 195 7 43 40 167 53 200 3 8 7 22 9 30 3 16 77 201 110
275 10 22 18 43 18 47 1 4 7 13 14 19 6 7 12 18 12 24 0 21 127 262 183 349
32 48 57 89 57 91 0 3 -10 1 -23 -4 -13 -5 -84 -9 -158 -8 -74 0 -152 -3 -174
-8 -22 -4 -46 -9 -54 -11 -32 -6 -101 -48 -129 -78 -62 -66 -107 -144 -216
-378 -20 -42 -36 -81 -36 -87 0 -6 -4 -11 -10 -11 -5 0 -10 -5 -10 -12 0 -14
-97 -206 -155 -308 -21 -36 -46 -81 -57 -100 -11 -19 -26 -42 -34 -51 -8 -8
-14 -18 -14 -22 0 -6 -79 -126 -90 -137 -3 -3 -24 -31 -47 -62 -50 -67 -160
-181 -223 -231 -53 -41 -149 -91 -200 -103 -120 -27 -197 2 -242 89 -19 38
-47 159 -43 187 1 8 5 40 9 70 9 78 26 140 70 255 14 38 142 293 186 370 230
409 559 752 838 874 222 97 447 60 546 -91 14 -22 22 -25 54 -21 46 5 91 52
85 87 -10 50 -83 101 -229 161 -22 9 -51 18 -65 20 -13 3 -51 10 -84 16 -62
12 -249 15 -320 6 -83 -12 -270 -64 -350 -97 -16 -7 -35 -14 -40 -15 -6 -2
-55 -25 -110 -52 -87 -43 -125 -65 -240 -143 -97 -65 -236 -205 -328 -330 -27
-36 -55 -73 -63 -83 -8 -9 -14 -19 -14 -21 0 -5 -66 -107 -78 -122 -5 -6 -37
-66 -70 -135 -64 -132 -115 -269 -126 -339 -13 -80 -48 -156 -140 -309 -99
-162 -154 -237 -255 -343 -76 -81 -133 -119 -238 -159 -178 -69 -286 -38 -360
105 -20 40 -25 65 -26 125 -1 69 8 195 18 261 2 14 7 54 10 90 3 36 8 81 10
100 3 19 7 62 10 95 12 138 10 134 93 219 146 152 170 179 273 306 99 121 174
224 243 330 26 41 56 86 65 100 10 14 46 75 80 136 61 108 64 111 100 113 20
1 50 3 66 5 17 2 59 7 95 10 36 4 76 9 90 11 14 2 50 7 80 10 30 3 62 8 72 11
23 7 39 59 28 89 -11 28 -38 37 -95 31 -22 -3 -62 -7 -90 -10 -27 -4 -70 -8
-95 -11 -25 -2 -64 -7 -87 -9 l-41 -4 24 51 c13 29 24 58 24 65 0 6 5 12 10
12 6 0 10 7 10 15 0 8 11 38 24 67 31 67 137 334 164 413 57 163 77 303 59
425 -6 42 -12 61 -39 117 -50 103 -172 156 -304 132z m142 -230 c49 -54 50
-218 4 -389 -7 -25 -13 -49 -15 -55 -1 -5 -4 -17 -7 -25 -3 -8 -16 -44 -28
-80 -12 -36 -24 -72 -27 -80 -3 -8 -7 -19 -9 -25 -3 -13 -31 -78 -57 -135 -11
-25 -22 -49 -23 -55 -1 -5 -27 -63 -57 -127 -51 -109 -58 -118 -84 -119 -15 0
-37 -2 -48 -4 -11 -2 -45 -7 -75 -10 -86 -9 -131 -15 -177 -20 l-41 -5 19 39
c10 22 19 47 19 56 0 8 4 23 10 33 5 9 36 89 69 177 54 146 101 265 147 370
10 22 18 42 19 45 4 20 92 183 131 242 44 67 154 191 154 174 0 -4 7 -3 16 2
24 13 42 10 60 -9z m-356 -1235 c0 -8 -60 -115 -81 -146 -11 -14 -19 -29 -19
-32 0 -4 -8 -19 -19 -34 -10 -15 -41 -61 -67 -102 -27 -41 -52 -76 -56 -78 -5
-2 -8 -8 -8 -14 0 -8 -38 -64 -65 -94 -5 -6 -17 -22 -25 -34 -17 -25 -92 -122
-100 -130 -5 -4 -69 -80 -120 -142 -19 -23 -33 -23 -21 0 6 9 32 91 60 182 27
91 66 217 86 280 20 63 38 122 41 130 2 8 16 52 31 98 21 62 33 84 48 87 21 5
101 14 174 21 24 2 45 5 47 6 5 6 94 7 94 2z"/>
<path d="M13190 5832 c0 -4 -29 -27 -65 -51 -75 -51 -89 -66 -80 -81 4 -6 17
-5 37 6 17 9 40 13 54 10 27 -7 31 -15 74 -148 l28 -88 -27 6 c-14 4 -30 9
-36 13 -5 3 -14 6 -20 8 -101 23 -201 55 -213 66 -13 13 -12 17 7 33 24 21 28
44 8 44 -19 0 -192 -129 -192 -143 0 -7 9 -10 20 -8 39 7 104 2 159 -14 30 -9
65 -18 78 -21 87 -16 210 -51 217 -61 3 -5 32 -30 64 -57 63 -53 72 -83 35
-109 -18 -11 -20 -18 -12 -27 13 -13 24 -8 139 75 89 63 95 69 85 85 -6 10
-15 9 -41 -7 -19 -11 -43 -18 -54 -15 -23 5 -67 37 -107 77 -16 15 -28 24 -28
19 0 -24 -30 40 -50 106 -13 41 -31 102 -41 134 -21 66 -24 112 -9 121 8 5 7
11 -1 21 -12 15 -29 19 -29 6z"/>
<path d="M12100 5139 c-36 -17 -85 -40 -110 -52 -25 -11 -48 -20 -52 -19 -5 1
-8 -2 -8 -7 0 -5 -10 -13 -21 -16 -45 -15 -189 -87 -189 -95 0 -6 47 -74 76
-108 1 -2 12 2 24 8 20 11 21 13 5 37 -27 41 -12 70 51 100 54 25 55 25 68 7
25 -35 235 -309 256 -332 11 -13 20 -30 20 -37 0 -15 -22 -39 -48 -54 -13 -7
-14 -13 -5 -22 9 -9 27 -4 80 21 71 33 175 83 182 87 2 1 -2 9 -9 18 -9 10
-16 12 -25 5 -34 -28 -97 -11 -125 36 -12 19 -132 177 -177 234 -74 92 -84
113 -57 116 5 0 26 8 47 18 46 20 92 15 116 -13 18 -21 55 -28 65 -13 6 10
-74 112 -88 112 -6 0 -40 -14 -76 -31z"/>
<path d="M11025 4700 c-97 -26 -191 -53 -194 -56 -2 -2 -1 -10 2 -18 4 -11 13
-13 34 -7 15 4 35 6 45 4 16 -4 21 -13 71 -123 13 -30 34 -77 46 -103 46 -103
53 -127 47 -162 -7 -34 -47 -73 -84 -80 -9 -2 -17 -4 -17 -6 0 -3 -46 -9 -87
-11 -50 -3 -101 34 -127 92 -11 25 -44 99 -74 166 -58 130 -60 158 -12 170 25
6 34 28 15 39 -5 3 -16 3 -22 -2 -7 -4 -17 -8 -23 -9 -5 -1 -54 -13 -108 -28
-55 -14 -101 -26 -103 -26 -2 0 -4 -7 -4 -16 0 -13 7 -15 33 -11 55 8 69 -7
121 -126 109 -250 127 -276 204 -296 62 -17 163 -4 243 30 104 45 132 119 85
223 -14 31 -26 58 -26 60 0 2 -18 43 -41 92 -22 48 -43 102 -46 121 -5 30 -3
34 26 44 20 7 31 18 31 30 0 10 -1 19 -2 18 -2 -1 -16 -5 -33 -9z"/>
<path d="M6505 4622 c-3 -9 -3 -18 2 -19 31 -11 58 -31 61 -44 1 -9 -32 -104
-74 -212 -59 -151 -82 -198 -98 -204 -30 -10 -39 -10 -58 -1 -14 6 -28 -7 -28
-27 0 -2 24 -8 53 -15 28 -6 63 -16 77 -21 14 -4 40 -11 59 -14 19 -3 37 -7
40 -9 18 -11 96 -21 168 -21 90 0 122 15 155 71 38 66 24 125 -42 170 -35 24
-35 24 -8 24 90 0 159 83 134 160 -15 46 -78 84 -191 114 -50 12 -98 26 -108
31 -10 4 -20 5 -23 2 -3 -3 -30 3 -59 13 -49 17 -54 17 -60 2z m245 -88 c101
-28 125 -67 86 -141 -28 -55 -80 -70 -174 -49 -64 14 -63 11 -36 79 13 34 29
70 34 79 6 10 10 25 10 33 0 19 10 19 80 -1z m-82 -230 c116 -22 149 -87 92
-179 -23 -37 -65 -55 -116 -50 -33 3 -124 24 -134 30 -6 4 58 177 76 207 3 5
18 7 33 3 14 -4 36 -9 49 -11z"/>
<path d="M7795 4381 c-6 -10 13 -36 21 -29 3 4 20 0 36 -8 32 -16 32 -19 14
-179 -2 -16 -7 -57 -10 -90 -21 -188 -29 -205 -86 -200 -17 1 -30 -1 -30 -6 0
-5 -1 -12 -2 -16 -4 -10 9 -11 257 -28 71 -5 198 -15 214 -17 25 -3 48 4 48
15 1 6 4 36 8 65 7 50 6 52 -17 52 -16 0 -27 -9 -37 -31 -19 -43 -59 -57 -140
-51 -36 2 -83 5 -103 6 l-38 1 4 45 c2 25 5 45 6 45 0 0 3 27 6 60 5 67 10 88
21 82 5 -3 56 -8 116 -11 90 -5 107 -4 107 8 0 22 -8 24 -115 31 -55 4 -103 9
-107 11 -7 4 -3 73 8 124 1 8 3 29 3 47 1 21 5 31 14 28 6 -2 46 -6 87 -9 113
-6 135 -18 143 -76 3 -18 11 -26 29 -28 22 -3 24 1 27 42 1 24 4 54 6 65 2 12
1 21 -3 22 -4 1 -32 2 -62 4 -30 2 -80 6 -110 9 -30 3 -98 8 -150 12 -52 3
-110 7 -128 9 -18 1 -34 -1 -37 -4z"/>
<path d="M9384 4382 c-16 -2 -26 -21 -48 -87 -15 -46 -29 -93 -31 -104 -2 -11
-8 -28 -13 -38 -6 -10 -10 -21 -10 -26 0 -4 -10 -38 -22 -75 -12 -37 -23 -71
-24 -77 -20 -89 -49 -135 -84 -135 -10 0 -19 -7 -19 -16 0 -13 12 -15 81 -9
45 4 98 7 119 8 28 1 37 6 37 19 0 14 -8 18 -34 18 -35 0 -71 24 -60 41 3 5 7
20 10 34 11 64 21 75 66 76 24 1 54 3 68 4 14 2 51 6 82 8 l57 5 26 -40 c15
-22 27 -52 28 -66 2 -22 -4 -29 -30 -37 -22 -6 -33 -15 -33 -28 0 -10 4 -16 9
-13 5 4 45 8 88 11 43 2 78 5 78 6 0 1 19 2 42 3 24 2 46 5 49 9 11 11 -7 27
-30 27 -12 0 -29 6 -38 13 -16 11 -188 271 -188 282 0 3 -5 11 -11 18 -6 7
-32 46 -59 88 -47 75 -64 88 -106 81z m132 -313 c-6 -4 -49 -10 -96 -14 -47
-4 -88 -9 -92 -12 -13 -7 -9 10 16 88 12 41 29 95 36 121 l12 47 68 -112 c43
-72 63 -114 56 -118z"/>
</g>
</svg>
