<svg width="24" height="25" viewBox="0 0 24 25" fill="none" xmlns="http://www.w3.org/2000/svg">
<path d="M21.7959 8.47487L9.79594 20.4749C9.69143 20.5798 9.56723 20.663 9.43049 20.7197C9.29374 20.7765 9.14713 20.8058 8.99907 20.8058C8.851 20.8058 8.70439 20.7765 8.56765 20.7197C8.4309 20.663 8.30671 20.5798 8.20219 20.4749L2.95219 15.2249C2.84755 15.1202 2.76453 14.996 2.7079 14.8593C2.65127 14.7225 2.62212 14.576 2.62212 14.428C2.62212 14.28 2.65127 14.1335 2.7079 13.9967C2.76453 13.86 2.84755 13.7358 2.95219 13.6311C3.05684 13.5265 3.18107 13.4435 3.3178 13.3868C3.45453 13.3302 3.60107 13.301 3.74907 13.301C3.89706 13.301 4.04361 13.3302 4.18033 13.3868C4.31706 13.4435 4.4413 13.5265 4.54594 13.6311L9 18.0852L20.2041 6.88299C20.4154 6.67165 20.7021 6.55292 21.0009 6.55292C21.2998 6.55292 21.5865 6.67165 21.7978 6.88299C22.0092 7.09434 22.1279 7.38098 22.1279 7.67987C22.1279 7.97876 22.0092 8.2654 21.7978 8.47674L21.7959 8.47487Z" fill="#E4AC30"/>
</svg>
