<svg width="24" height="25" viewBox="0 0 24 25" fill="none" xmlns="http://www.w3.org/2000/svg">
<path d="M7.8 2.41748H16.2C19.4 2.41748 22 5.01748 22 8.21748V16.6175C22 18.1557 21.3889 19.631 20.3012 20.7187C19.2135 21.8064 17.7383 22.4175 16.2 22.4175H7.8C4.6 22.4175 2 19.8175 2 16.6175V8.21748C2 6.67922 2.61107 5.20397 3.69878 4.11626C4.78649 3.02855 6.26174 2.41748 7.8 2.41748ZM7.6 4.41748C6.64522 4.41748 5.72955 4.79677 5.05442 5.4719C4.37928 6.14703 4 7.0627 4 8.01748V16.8175C4 18.8075 5.61 20.4175 7.6 20.4175H16.4C17.3548 20.4175 18.2705 20.0382 18.9456 19.3631C19.6207 18.6879 20 17.7723 20 16.8175V8.01748C20 6.02748 18.39 4.41748 16.4 4.41748H7.6ZM17.25 5.91748C17.5815 5.91748 17.8995 6.04918 18.1339 6.2836C18.3683 6.51802 18.5 6.83596 18.5 7.16748C18.5 7.499 18.3683 7.81694 18.1339 8.05136C17.8995 8.28578 17.5815 8.41748 17.25 8.41748C16.9185 8.41748 16.6005 8.28578 16.3661 8.05136C16.1317 7.81694 16 7.499 16 7.16748C16 6.83596 16.1317 6.51802 16.3661 6.2836C16.6005 6.04918 16.9185 5.91748 17.25 5.91748ZM12 7.41748C13.3261 7.41748 14.5979 7.94426 15.5355 8.88195C16.4732 9.81963 17 11.0914 17 12.4175C17 13.7436 16.4732 15.0153 15.5355 15.953C14.5979 16.8907 13.3261 17.4175 12 17.4175C10.6739 17.4175 9.40215 16.8907 8.46447 15.953C7.52678 15.0153 7 13.7436 7 12.4175C7 11.0914 7.52678 9.81963 8.46447 8.88195C9.40215 7.94426 10.6739 7.41748 12 7.41748ZM12 9.41748C11.2044 9.41748 10.4413 9.73355 9.87868 10.2962C9.31607 10.8588 9 11.6218 9 12.4175C9 13.2131 9.31607 13.9762 9.87868 14.5388C10.4413 15.1014 11.2044 15.4175 12 15.4175C12.7956 15.4175 13.5587 15.1014 14.1213 14.5388C14.6839 13.9762 15 13.2131 15 12.4175C15 11.6218 14.6839 10.8588 14.1213 10.2962C13.5587 9.73355 12.7956 9.41748 12 9.41748Z" fill="#F2B705"/>
</svg>
