<svg width="170" height="75" viewBox="0 0 170 75" fill="none" xmlns="http://www.w3.org/2000/svg">
<path d="M75.9241 8.65675C75.6177 6.9755 74.3601 5.50441 72.1478 4.24067C68.9558 2.44733 64.8946 1.82807 59.9641 2.38008C55.6392 2.87325 50.9937 4.1594 46.0276 6.23575C43.4234 7.32015 41.2431 8.64274 39.4868 10.2035C36.7686 12.6637 35.6001 14.9446 35.9813 17.0518C36.5014 19.8763 39.2481 22.1572 44.2178 23.8889C46.0774 24.5165 49.7504 25.4636 55.2331 26.7246C60.7122 27.9799 64.7449 29.0503 67.3313 29.9302C71.243 31.2527 74.0609 32.8219 75.7816 34.6377C77.5094 36.4478 78.5318 38.1851 78.8453 39.8495C79.2799 42.2481 78.7206 44.8092 77.1638 47.5272C74.4456 52.3777 69.9676 56.7937 63.7261 60.7755C56.5512 65.4017 47.4241 68.3355 36.3376 69.5852C25.6857 70.7873 16.8364 69.6133 9.78982 66.0658C4.31782 63.3618 1.11869 59.4473 0.185316 54.3195C-0.413184 51.0635 0.438254 47.3003 2.73607 43.0327C5.03388 38.7679 8.22588 35.5736 12.3121 33.4496C13.1742 33.0545 13.8439 32.878 14.3213 32.9228C14.7951 32.9676 14.4923 33.4664 13.4093 34.4135C11.1008 36.3413 9.32669 38.3784 8.09407 40.522C5.46138 45.1175 4.59213 49.881 5.48632 54.8127C6.08482 58.0715 7.76632 60.7923 10.5308 62.9723C15.4613 66.8728 23.0922 68.5261 33.4306 67.9376C34.6062 67.8984 36.3376 67.7499 38.6176 67.4893C40.9047 67.2343 43.9542 66.5674 47.7661 65.483C51.5744 64.393 55.1689 62.8939 58.5533 60.9885C65.8101 56.8414 70.1243 52.0526 71.4923 46.6194C71.9483 45.0054 72.0409 43.481 71.7773 42.0464C71.1788 38.7904 68.7991 36.1256 64.6381 34.0548C62.3937 33.0405 57.9904 31.8412 51.4283 30.457C44.8733 29.0755 40.4273 27.9519 38.0903 27.0832C32.9389 25.119 30.0569 22.4374 29.4406 19.0357C28.8991 16.0711 30.4701 12.9383 34.1573 9.64308C39.4476 4.93558 47.6022 1.96257 58.6246 0.721249C63.8009 0.132811 68.1293 0.261707 71.6063 1.11354C75.0904 1.96537 77.4239 3.57377 78.6031 5.93312C78.8097 6.39827 78.9629 6.87182 79.0591 7.35658C79.3904 9.21717 78.5959 11.0161 76.6793 12.7478C75.3184 13.877 73.4196 14.8746 70.9793 15.7404C69.9248 16.1075 69.2978 16.0767 69.0983 15.6507C68.8596 15.0455 69.5543 14.5804 71.1788 14.2497C74.0573 13.6389 75.6426 12.2854 75.9383 10.1923C76.0238 9.64869 76.0167 9.13591 75.9241 8.65675Z" fill="#f2b705"/>
<path d="M86.7137 51.3595C85.9905 47.3862 87.2125 40.4538 90.376 30.5681L85.6307 31.1061C85.3172 31.1369 85.0928 31.0248 84.961 30.7698C84.8292 30.5092 84.8114 30.2402 84.904 29.9628C85.0073 29.6882 85.2175 29.5313 85.531 29.4921L91.003 28.8756C92.5028 24.8406 93.9599 21.4501 95.3777 18.6984C96.8027 15.9412 98.2206 14.033 99.6385 12.971C101.063 11.9034 102.125 11.3318 102.83 11.2561C103.532 11.1748 104.045 11.1664 104.369 11.2337C105.869 11.6007 106.771 12.6095 107.077 14.2599C107.38 15.9048 107.041 17.9811 106.065 20.4918C105.096 23.0024 104.12 25.3394 103.144 27.497L107.533 27.0038C107.846 26.9674 108.067 27.0767 108.203 27.3288C108.345 27.5754 108.363 27.8444 108.26 28.1358C108.153 28.4217 107.946 28.5814 107.633 28.6178L102.346 29.2118C99.8095 34.0398 96.4785 38.4475 92.3567 42.4377L91.5872 50.0033C91.5196 50.6478 91.5374 51.267 91.6442 51.8639C91.7582 52.4635 92.086 53.0492 92.6275 53.6236C93.1761 54.2008 93.91 54.4362 94.822 54.3297C95.848 54.212 96.9488 53.7917 98.128 53.0744C100.739 51.0205 103.304 47.0415 105.823 41.1375C105.994 40.6752 106.236 40.3753 106.55 40.2408C106.863 40.1007 107.066 40.1372 107.162 40.3529C107.266 40.5715 107.241 40.9245 107.091 41.4177C105.684 44.9595 104.533 47.4898 103.643 49.0058C101.106 53.5423 97.9784 56.0194 94.2662 56.4369C92.3745 56.6554 90.7215 56.2856 89.3072 55.3273C87.8894 54.3633 87.0272 53.0408 86.7137 51.3595ZM101.149 27.7211C104.12 21.6238 105.41 17.4739 105.011 15.2687C104.829 14.3132 104.53 13.8564 104.113 13.9013C103.436 13.9769 102.553 14.8596 101.462 16.5464C100.369 18.2361 98.7407 22.1338 96.5747 28.2367L101.149 27.7211ZM100.237 29.4472L95.9477 29.9404C95.4632 31.361 94.4016 34.7263 92.77 40.0391C95.563 36.9904 98.0496 33.4598 100.237 29.4472Z" fill="#f2b705"/>
<path d="M132.527 32.168C131.586 33.1627 130.389 35.2923 128.936 38.5567C127.489 41.8239 126.706 44.2337 126.584 45.7861C126.47 47.3412 126.499 48.5882 126.67 49.5297C126.841 50.4656 127.382 50.8803 128.294 50.7738C129.442 50.6393 130.721 49.639 132.128 47.77C134.18 45.0435 136.061 41.5802 137.771 37.3798C137.942 36.9091 138.173 36.6373 138.469 36.5616C138.925 36.3599 139.189 36.4776 139.267 36.9091C139.313 37.1501 139.271 37.4443 139.139 37.7945C135.177 47.344 131.276 52.3374 127.439 52.7689C125.672 52.9706 124.119 52.4635 122.78 51.2445C122.096 50.5889 121.643 49.6614 121.426 48.4649C121.205 47.2712 121.244 45.7721 121.54 43.9703C117.806 50.7037 114.173 54.268 110.639 54.6631C109.659 54.7752 108.733 54.6379 107.86 54.2484C105.836 53.4498 104.6 51.8274 104.155 49.384C103.3 44.6933 105.017 39.6327 109.313 34.2079C111.743 31.1984 115.021 29.0408 119.146 27.7407C120.257 27.3764 121.33 27.1354 122.366 27.0233C125.167 26.7039 127.685 27.1971 129.919 28.5028C130.621 28.9736 130.892 29.4611 130.731 29.9599C130.567 30.4615 130.083 30.7109 129.278 30.7109C128.287 29.0604 126.67 28.3627 124.418 28.6149C121.796 28.9147 118.865 30.907 115.626 34.589C113.792 36.7578 112.163 39.2404 110.738 42.0425C108.932 45.4218 108.202 48.0446 108.544 49.9108C108.886 51.7797 109.819 52.6288 111.351 52.455C114.999 52.0459 118.968 47.1031 123.264 37.6264C124.109 35.7154 124.864 34.3928 125.53 33.6587C126.203 32.9189 127.147 32.4818 128.366 32.3473C128.612 32.3193 129.249 32.3221 130.275 32.3585C131.308 32.3893 132.06 32.3249 132.527 32.168Z" fill="#f2b705"/>
<path d="M147.353 20.9545C147.741 23.115 146.376 25.3538 143.263 27.6683C144.488 27.5731 146.116 27.4105 148.151 27.1864C150.192 26.9566 152.743 26.5447 155.803 25.9535C155.952 26.0824 156.088 26.455 156.202 27.0743C156.316 27.6964 156.116 28.6603 155.603 29.966C155.097 31.2746 154.638 32.4039 154.221 33.351C153.811 34.2925 153.416 35.1891 153.038 36.041C152.668 36.8928 152.269 37.9324 151.841 39.1569C151.414 40.3758 151.075 41.4882 150.83 42.497C149.964 46.3162 150.534 48.1095 152.54 47.877C155.094 47.5939 158.14 43.1667 161.674 34.5951C161.994 33.931 162.304 33.6536 162.6 33.7657C162.903 33.8722 163.074 34.0319 163.113 34.2476C163.149 34.4662 162.889 35.2536 162.329 36.6126C161.777 37.966 161.164 39.367 160.491 40.8157C159.814 42.2588 158.671 43.9821 157.057 45.9828C155.137 48.443 153.113 49.7908 150.986 50.029C148.61 50.298 146.761 49.3565 145.443 47.2045C145.165 46.801 144.948 46.1705 144.788 45.3103C144.634 44.4444 144.777 43.2535 145.215 41.7348C145.66 40.2189 146.455 38.3471 147.595 36.1194C148.742 33.8862 149.376 32.5776 149.49 32.1965C149.611 31.8154 149.64 31.4568 149.576 31.1205C149.308 29.6354 146.729 29.1198 141.838 29.5738L141.154 31.9948C138.767 40.3338 136.052 46.0472 133.003 49.1323C132.483 49.6339 132.158 49.5246 132.034 48.8073C132.005 48.6587 132.034 48.4794 132.119 48.2692C134.877 44.3463 137.057 39.8266 138.674 34.7072C140.288 29.5906 141.186 24.7962 141.368 20.3269C141.453 18.8025 142.166 17.9675 143.505 17.8162C144.845 17.6593 145.942 18.2169 146.797 19.4863C147.053 19.8898 147.239 20.3801 147.353 20.9545Z" fill="#f2b705"/>
<path d="M86.8158 67.6892C86.7375 67.8909 86.6306 68.0647 86.4881 68.2048C86.3527 68.3393 86.2031 68.4513 86.0321 68.541C85.8611 68.6251 85.6687 68.6839 85.4621 68.7204C85.2519 68.7596 85.0382 68.7736 84.8209 68.7652L84.8066 68.81C85.0524 68.9165 85.2662 69.0398 85.4479 69.1799C85.6367 69.3144 85.7792 69.4685 85.8754 69.6394C85.9787 69.8132 86.0357 70.0065 86.0463 70.2223C86.0642 70.4324 86.025 70.6566 85.9324 70.8948C85.7044 71.4832 85.284 71.8643 84.6784 72.038C84.0692 72.2089 83.2676 72.1725 82.2701 71.9259L78.8216 71.0853L78.9784 70.7042L79.1208 70.7491C79.2527 70.7799 79.3773 70.8023 79.4913 70.8163C79.6125 70.8247 79.7265 70.8163 79.8334 70.7939C79.9367 70.7659 80.0329 70.7126 80.1184 70.637C80.2039 70.5641 80.2751 70.4548 80.3321 70.3119L82.0849 65.851C82.1312 65.7165 82.1454 65.6044 82.1276 65.5148C82.1062 65.4195 82.0599 65.3354 81.9851 65.2682C81.9174 65.2009 81.8284 65.1505 81.7144 65.1113C81.6075 65.0664 81.4935 65.03 81.3724 64.9992L81.2299 64.9544L81.3724 64.5733L84.4789 65.3354C85.4835 65.5764 86.1782 65.8903 86.5593 66.2769C86.9477 66.658 87.0332 67.1288 86.8158 67.6892ZM81.2584 71.1974L82.3841 71.4664C82.7154 71.5477 83.004 71.5897 83.2533 71.5897C83.5098 71.5897 83.7236 71.5561 83.8946 71.4888C84.0727 71.4272 84.2295 71.3207 84.3649 71.1638C84.4967 71.0069 84.6107 70.8051 84.7068 70.5585C84.7995 70.3288 84.8529 70.1186 84.8636 69.9309C84.8707 69.7375 84.8351 69.5666 84.7496 69.4153C84.6641 69.2668 84.5145 69.1407 84.3079 69.0342C84.1084 68.9221 83.8305 68.8212 83.4814 68.7316L82.3414 68.4626L81.2584 71.1974ZM82.5124 68.0142L83.3246 68.2048C83.6559 68.2888 83.9445 68.3337 84.1939 68.3393C84.4397 68.3477 84.6499 68.3169 84.8209 68.2496C84.9919 68.1824 85.1379 68.0787 85.2626 67.9358C85.3837 67.7873 85.4906 67.6051 85.5761 67.3866C85.6687 67.1624 85.7115 66.969 85.7044 66.8037C85.6937 66.6412 85.6331 66.4983 85.5191 66.3778C85.4122 66.2517 85.2555 66.1396 85.0489 66.0416C84.8387 65.9463 84.5715 65.8566 84.2509 65.7726L83.4671 65.5932L82.5124 68.0142Z" fill="#f2b705"/>
<path d="M99.0985 74.1556L101.421 74.3237C101.621 74.3405 101.785 74.3293 101.92 74.2901C102.063 74.2537 102.18 74.206 102.276 74.1444C102.38 74.0771 102.462 73.9987 102.519 73.909C102.583 73.8193 102.632 73.7241 102.661 73.6176L102.804 73.2253L103.431 73.2701L103.16 74.929L96.676 74.447L96.7188 74.0435L96.8755 74.0547C97.0073 74.0631 97.1356 74.0659 97.2603 74.0659C97.3921 74.0659 97.5061 74.0491 97.6022 74.0099C97.6949 73.9734 97.7733 73.9146 97.8303 73.8306C97.8944 73.7493 97.9371 73.6372 97.9585 73.4943L98.5143 68.8316C98.5214 68.6831 98.5071 68.5626 98.4715 68.473C98.4323 68.3777 98.3718 68.302 98.2863 68.2488C98.2008 68.19 98.0939 68.1479 97.9728 68.1255C97.8588 68.0975 97.7305 68.0779 97.588 68.0695L97.4313 68.0583L97.4883 67.666L103.573 68.1143L103.431 69.7731L102.804 69.7283L102.789 69.3248C102.789 69.2211 102.768 69.1202 102.732 69.0222C102.704 68.9185 102.65 68.8288 102.576 68.7532C102.497 68.6719 102.397 68.6075 102.276 68.5626C102.152 68.5122 102.006 68.4786 101.835 68.4618L99.7968 68.316L99.4975 70.8379L102.405 71.0509L102.348 71.5216L99.4405 71.3087L99.0985 74.1556Z" fill="#f2b705"/>
<path d="M116.314 72.4249L116.014 73.4673C115.986 73.543 115.964 73.6214 115.957 73.7027C115.947 73.7783 115.947 73.8428 115.957 73.8932C115.986 74.0445 116.071 74.1482 116.214 74.2071C116.356 74.2687 116.559 74.2855 116.827 74.2631L117.112 74.2407L117.169 74.6442L114.219 74.9132L114.162 74.5097L114.39 74.4873C114.511 74.4817 114.611 74.4649 114.689 74.4424C114.764 74.4144 114.832 74.3696 114.889 74.3079C114.953 74.2407 115.006 74.1594 115.045 74.0614C115.092 73.9661 115.138 73.8372 115.188 73.6803L117.026 67.7959L117.967 67.7062L121.572 73.3328C121.629 73.4169 121.686 73.4897 121.743 73.557C121.8 73.6186 121.86 73.6635 121.928 73.6915C122.003 73.7223 122.085 73.7419 122.17 73.7475C122.263 73.7559 122.373 73.7559 122.498 73.7475L122.655 73.7251L122.712 74.1286L119.406 74.4424L119.349 74.0389L119.62 74.0053C120.104 73.9605 120.321 73.7924 120.275 73.5009C120.264 73.4421 120.247 73.3889 120.218 73.344C120.197 73.2936 120.165 73.2291 120.118 73.1535L119.477 72.1335L116.314 72.4249ZM118.195 70.0936C118.031 69.8246 117.881 69.5724 117.739 69.3314C117.596 69.0933 117.475 68.8691 117.382 68.6589C117.361 68.7654 117.343 68.8719 117.325 68.984C117.304 69.0961 117.283 69.2138 117.254 69.3314C117.226 69.4435 117.19 69.564 117.154 69.6901C117.115 69.819 117.072 69.9563 117.026 70.1048L116.47 71.9318L119.178 71.6852L118.195 70.0936Z" fill="#f2b705"/>
<path d="M137.142 71.2566C136.693 71.3855 136.273 71.4584 135.874 71.4808C135.482 71.5032 135.126 71.4668 134.805 71.3687C134.492 71.2735 134.21 71.1165 133.964 70.898C133.715 70.6738 133.512 70.3796 133.352 70.0125L131.813 66.5155C131.756 66.381 131.684 66.2802 131.599 66.2129C131.513 66.14 131.424 66.0952 131.328 66.0784C131.225 66.056 131.111 66.056 130.986 66.0784C130.865 66.0952 130.74 66.1176 130.616 66.1456L130.459 66.1905L130.288 65.8094L133.637 64.9015L133.808 65.2826L133.637 65.3274C133.512 65.3583 133.398 65.4003 133.295 65.4507C133.188 65.4956 133.102 65.5516 133.038 65.6189C132.981 65.6861 132.949 65.7702 132.938 65.8654C132.92 65.9635 132.938 66.084 132.995 66.2241L134.549 69.7435C134.663 70.0069 134.805 70.2143 134.976 70.3712C135.154 70.5281 135.354 70.6458 135.575 70.7187C135.792 70.7859 136.023 70.8167 136.273 70.8083C136.529 70.7943 136.8 70.7495 137.085 70.6738C137.416 70.5841 137.687 70.4721 137.897 70.3376C138.104 70.1975 138.261 70.0433 138.368 69.878C138.471 69.7071 138.524 69.5278 138.524 69.34C138.524 69.1467 138.482 68.9477 138.396 68.746L136.814 65.1481C136.757 65.0136 136.679 64.9127 136.586 64.8455C136.501 64.7782 136.405 64.739 136.301 64.7222C136.205 64.6998 136.095 64.697 135.974 64.711C135.86 64.7278 135.735 64.753 135.603 64.7894L135.461 64.8343L135.29 64.4532L138.168 63.6686L138.339 64.0497L138.182 64.0945C138.058 64.1253 137.94 64.1674 137.826 64.2178C137.719 64.2626 137.634 64.3187 137.57 64.3859C137.513 64.4532 137.477 64.5373 137.47 64.6325C137.459 64.7306 137.484 64.8511 137.541 64.9912L139.109 68.5667C139.24 68.8665 139.294 69.1551 139.265 69.4297C139.244 69.6987 139.155 69.9509 138.995 70.1806C138.831 70.4048 138.596 70.6122 138.282 70.7971C137.976 70.9848 137.598 71.139 137.142 71.2566Z" fill="#f2b705"/>
<path d="M153.622 63.8485C153.714 63.9774 153.814 64.0698 153.921 64.1287C154.024 64.1819 154.128 64.2128 154.235 64.2184C154.338 64.2184 154.448 64.2016 154.562 64.1623C154.676 64.1259 154.79 64.0783 154.904 64.0166L155.147 63.9157L155.417 64.2632L152.197 65.7875L151.926 65.4401L152.154 65.328C152.268 65.2775 152.371 65.2215 152.468 65.1599C152.571 65.101 152.646 65.0338 152.696 64.9581C152.742 64.8853 152.76 64.8012 152.753 64.7115C152.742 64.6163 152.688 64.5042 152.596 64.3753L149.119 59.8471L148.121 60.3179C147.972 60.3935 147.858 60.4748 147.779 60.5644C147.704 60.6485 147.658 60.7326 147.637 60.8222C147.619 60.9119 147.623 61.0072 147.651 61.1024C147.68 61.2005 147.729 61.2986 147.794 61.3939L147.993 61.7749L147.466 62.0215L146.411 60.5644L152.254 57.796L153.408 59.2082L152.867 59.466L152.553 59.141C152.475 59.0513 152.386 58.9785 152.282 58.9168C152.186 58.8496 152.083 58.8019 151.969 58.7711C151.855 58.7431 151.73 58.7347 151.598 58.7487C151.474 58.7571 151.335 58.7991 151.185 58.872L150.173 59.3539L153.622 63.8485Z" fill="#f2b705"/>
<path d="M166.766 57.5485L166.424 57.2571L166.638 57.1114C166.73 57.0385 166.816 56.9628 166.894 56.8872C166.98 56.8143 167.03 56.7387 167.051 56.663C167.079 56.5818 167.072 56.4949 167.037 56.4052C167.008 56.31 166.93 56.2091 166.809 56.1026L165.255 54.78L160.952 53.7377C160.831 53.7012 160.72 53.676 160.624 53.6592C160.532 53.6452 160.439 53.6424 160.353 53.648C160.268 53.648 160.189 53.6648 160.111 53.6928C160.036 53.7236 159.965 53.7657 159.897 53.8161L159.783 53.9058L159.441 53.6032L161.892 51.821L162.234 52.1237L161.892 52.3702C161.818 52.4235 161.761 52.4767 161.721 52.5272C161.686 52.572 161.664 52.6168 161.664 52.6617C161.657 52.7065 161.664 52.7485 161.693 52.7849C161.714 52.8158 161.736 52.8466 161.764 52.8746C161.842 52.9363 161.942 52.9867 162.063 53.0315C162.177 53.0708 162.277 53.1044 162.363 53.1324L164.13 53.5807C164.408 53.6564 164.664 53.7376 164.899 53.8273C165.138 53.9114 165.348 53.9898 165.526 54.0627C165.476 53.9954 165.441 53.917 165.412 53.8273C165.384 53.7376 165.355 53.6452 165.327 53.5471C165.291 53.4434 165.255 53.3342 165.227 53.2221C165.191 53.11 165.152 52.9923 165.113 52.8634L164.728 51.6529C164.7 51.5268 164.657 51.4231 164.6 51.3391C164.543 51.2494 164.482 51.1794 164.415 51.1261C164.294 51.0224 164.155 50.9776 164.001 50.9916C163.841 51.0084 163.681 51.0757 163.517 51.1934L163.246 51.3839L162.904 51.0813L165.07 49.5121L165.412 49.8147L165.312 49.8932C165.248 49.938 165.198 49.9885 165.17 50.0389C165.134 50.0921 165.109 50.1622 165.099 50.2519C165.092 50.3415 165.099 50.4424 165.127 50.5545C165.149 50.6666 165.181 50.8011 165.227 50.958L166.153 54.1299L167.664 55.4189C167.795 55.5254 167.92 55.5982 168.034 55.6431C168.155 55.6823 168.269 55.6963 168.376 55.6879C168.49 55.6739 168.593 55.6403 168.69 55.587C168.793 55.5366 168.893 55.4721 168.989 55.3965L169.203 55.2508L169.545 55.5422L166.766 57.5485Z" fill="#f2b705"/>
</svg>
