<svg xmlns="http://www.w3.org/2000/svg" version="1.1" viewBox="-5.0 -10.0 110.0 135.0">
 <path d="m73.32 59.281c-1.2461 0.21094-2.375 0.74609-3.3203 1.5586-0.94531-0.8125-2.0703-1.3516-3.3203-1.5586-1.9609-0.32812-3.9688 0.20312-5.3789 1.418-2.5586 2.2148-2.7148 6.3984-0.41797 10.375 1.6875 3.1289 5.8555 5.8555 8.1875 7.1992 0.28516 0.16406 0.60547 0.25 0.92578 0.25 0.32031 0 0.64062-0.082032 0.92578-0.25 2.332-1.3477 6.5-4.0703 8.1641-7.1523 2.3203-4.0195 2.1641-8.207-0.39453-10.418-1.4062-1.2188-3.4141-1.7539-5.375-1.4219zm2.5352 10.035c-0.81641 1.5117-2.9727 3.418-5.8555 5.1992-2.8828-1.7812-5.043-3.6875-5.8828-5.2461-1.3867-2.3984-1.5469-4.7695-0.39453-5.7656 0.44922-0.39062 1.125-0.60938 1.8164-0.60938 0.17578 0 0.35156 0.011719 0.52344 0.042969 0.67969 0.11328 1.6328 0.5 2.332 1.7148 0.66016 1.1445 2.543 1.1445 3.2031 0 0.69922-1.2109 1.6562-1.6016 2.332-1.7148 0.84766-0.14453 1.7734 0.078125 2.3398 0.57031 1.1523 0.99609 0.99219 3.3672-0.41797 5.8125zm17.281-29.512c-0.48438 0.48437-0.96094 1.0664-1.4375 1.6602-0.17578 0.21484-0.35547 0.43359-0.53516 0.64844-0.007812 0.003907-0.015624 0-0.023437 0.003907-0.10938-0.039063-0.21094-0.10547-0.32812-0.12109-6.4961-1.0195-11.352-3.9297-16.043-6.75-4.4258-2.6562-8.6016-5.1602-13.512-5.5391-3.4609-0.26562-7.1406 0.60547-11.254 2.6523-4.1133-2.0469-7.793-2.918-11.254-2.6523-4.9102 0.37891-9.0859 2.8867-13.512 5.5391-4.6953 2.8164-9.5469 5.7305-16.043 6.75-0.11719 0.019531-0.21484 0.082031-0.32422 0.12109-0.011719-0.003907-0.023438-0.003907-0.035156-0.007813-0.17969-0.21484-0.35547-0.42969-0.52734-0.64453-0.48047-0.59375-0.95703-1.1797-1.4375-1.6602-0.72266-0.72266-1.8945-0.72266-2.6172 0-0.72266 0.72266-0.72266 1.8945 0 2.6172 0.39453 0.39453 0.78125 0.87891 1.1758 1.3672 0.43359 0.53516 0.90625 1.1094 1.4258 1.6445 8.3555 21.07 21.973 28.645 32.043 28.645 2.1641 0 4.1602-0.60547 6.0938-1.1914 1.75-0.53125 3.4062-1.0312 5.0195-1.0312s3.2695 0.5 5.0156 1.0352c0.99219 0.29688 2.0156-0.25391 2.3125-1.2344s-0.25391-2.0117-1.2344-2.3125c-1.9297-0.58594-3.9258-1.1914-6.0938-1.1914s-4.1602 0.60547-6.0938 1.1914c-1.75 0.53125-3.4062 1.0312-5.0195 1.0312-8.3281 0-19.516-6.1523-27.199-22.996 4.8086-0.39844 8.3086 1.1992 11.996 2.9023 3.2461 1.5 6.5977 3.0508 10.762 3.0508 2.2539 0 3.8477-0.60547 5.3906-1.1875 2.332-0.88672 4.5352-1.7148 9.6914-0.35156 0.3125 0.082031 0.63672 0.082031 0.94922 0 5.1602-1.3633 7.3594-0.53125 9.6914 0.35156 1.543 0.58203 3.1367 1.1875 5.3906 1.1875 4.1602 0 7.5156-1.5508 10.762-3.0508 3.6914-1.707 7.1992-3.3047 12.008-2.9023-1.7852 3.9219-3.8125 7.4062-6.0625 10.398-0.61328 0.81641-0.44922 1.9766 0.36719 2.5898 0.33203 0.25 0.72266 0.37109 1.1094 0.37109 0.5625 0 1.1172-0.25391 1.4805-0.73828 3.0586-4.0625 5.707-8.9688 7.9219-14.547 0.52344-0.53906 1-1.1211 1.4375-1.6641 0.39453-0.48828 0.77734-0.96875 1.1758-1.3672 0.72266-0.72266 0.72266-1.8945 0-2.6172-0.72266-0.72266-1.8945-0.72266-2.6172 0zm-18.371 7.1133c-3.0117 1.3945-5.8594 2.7109-9.207 2.7109-1.5781 0-2.7383-0.4375-4.082-0.94922-2.5781-0.97266-5.4883-2.0742-11.473-0.58594-5.9844-1.4883-8.8984-0.38672-11.473 0.58594-1.3438 0.50781-2.5039 0.94922-4.082 0.94922-3.3477 0-6.1953-1.3164-9.207-2.7109-2.5859-1.1953-5.4141-2.4844-8.7852-3.0352 4.0703-1.5039 7.5273-3.5586 10.691-5.457 4.2109-2.5273 7.8516-4.7109 11.891-5.0234 2.9688-0.22266 6.2773 0.64844 10.102 2.6797 0.54297 0.28906 1.1953 0.28906 1.7383 0 3.8242-2.0312 7.1367-2.8984 10.102-2.6797 4.0391 0.3125 7.6797 2.4961 11.891 5.0234 3.1641 1.8984 6.625 3.9531 10.695 5.4609-3.3711 0.55078-6.2031 1.8398-8.7891 3.0352zm-62.172-14.695v-2.5938h-0.37109c-1.0234 0-1.8516-0.82812-1.8516-1.8516 0-1.0234 0.82812-1.8516 1.8516-1.8516h0.37109v-2.5938c0-1.0234 0.82812-1.8516 1.8516-1.8516 1.0234 0 1.8516 0.82812 1.8516 1.8516v2.5938h0.37109c1.0234 0 1.8516 0.82812 1.8516 1.8516 0 1.0234-0.82812 1.8516-1.8516 1.8516h-0.37109v2.5938c0 1.0234-0.82812 1.8516-1.8516 1.8516-1.0234 0-1.8516-0.82812-1.8516-1.8516zm73.336 4.4414v-2.5898h-0.37109c-1.0234 0-1.8516-0.82812-1.8516-1.8516 0-1.0234 0.82812-1.8516 1.8516-1.8516h0.37109v-2.5938c0-1.0234 0.82812-1.8516 1.8516-1.8516s1.8516 0.82812 1.8516 1.8516v2.5938h0.36719c1.0234 0 1.8516 0.82812 1.8516 1.8516 0 1.0234-0.82812 1.8516-1.8516 1.8516h-0.36719v2.5898c0 1.0234-0.82812 1.8516-1.8516 1.8516s-1.8516-0.82812-1.8516-1.8516zm-74.078 31.113c0 1.0234-0.82812 1.8516-1.8516 1.8516h-0.37109v2.5938c0 1.0234-0.82812 1.8516-1.8516 1.8516-1.0234 0-1.8516-0.82812-1.8516-1.8516v-2.5938h-0.37109c-1.0234 0-1.8516-0.82812-1.8516-1.8516 0-1.0234 0.82812-1.8516 1.8516-1.8516h0.37109v-2.5898c0-1.0234 0.82812-1.8516 1.8516-1.8516 1.0234 0 1.8516 0.82812 1.8516 1.8516v2.5898h0.37109c1.0234 0 1.8516 0.82812 1.8516 1.8516zm31.105-30.102c0.058594 1.0234-0.72656 1.8945-1.7461 1.9531-3.4688 0.19141-6.5781 1.3594-9.5 3.5742-0.33594 0.25391-0.72656 0.375-1.1172 0.375-0.5625 0-1.1133-0.25391-1.4766-0.73438-0.61719-0.81641-0.45703-1.9766 0.35547-2.5938 3.5273-2.6719 7.2969-4.0859 11.531-4.3203 1.0469-0.10547 1.8945 0.72266 1.9531 1.7461z"/>
<text x="0.0" y="117.5" font-size="5.0" font-weight="bold" font-family="Arbeit Regular, Helvetica, Arial-Unicode, Arial, Sans-serif" fill="#000000">Created by Gofficon</text><text x="0.0" y="122.5" font-size="5.0" font-weight="bold" font-family="Arbeit Regular, Helvetica, Arial-Unicode, Arial, Sans-serif" fill="#000000">from Noun Project</text></svg>