<svg width="24" height="25" viewBox="0 0 24 25" fill="none" xmlns="http://www.w3.org/2000/svg">
<path d="M16.6 6.23748C15.9164 5.4571 15.5397 4.45491 15.54 3.41748H12.45V15.8175C12.4261 16.4885 12.1428 17.1241 11.6597 17.5904C11.1766 18.0567 10.5314 18.3174 9.85997 18.3175C8.43997 18.3175 7.25997 17.1575 7.25997 15.7175C7.25997 13.9975 8.91997 12.7075 10.63 13.2375V10.0775C7.17997 9.61748 4.15997 12.2975 4.15997 15.7175C4.15997 19.0475 6.91997 21.4175 9.84997 21.4175C12.99 21.4175 15.54 18.8675 15.54 15.7175V9.42748C16.793 10.3273 18.2973 10.8101 19.84 10.8075V7.71748C19.84 7.71748 17.96 7.80748 16.6 6.23748Z" fill="#F2B705"/>
</svg>
